<?xml version="1.0" standalone="no"?>
<!DOCTYPE svg PUBLIC "-//W3C//DTD SVG 20010904//EN"
 "http://www.w3.org/TR/2001/REC-SVG-20010904/DTD/svg10.dtd">
<svg version="1.0" xmlns="http://www.w3.org/2000/svg"
 width="288.000000pt" height="288.000000pt" viewBox="0 0 288.000000 288.000000"
 preserveAspectRatio="xMidYMid meet">
<g transform="translate(0.000000,288.000000) scale(0.100000,-0.100000)"
fill="#000000" stroke="none">
<path d="M612 1954 c-27 -19 -28 -53 -3 -85 22 -29 51 -84 51 -98 0 -7 -104
-12 -307 -13 l-308 -3 -9 -27 c-8 -22 -6 -32 9 -48 17 -19 29 -20 336 -20
l318 0 8 -37 c4 -21 8 -103 8 -183 0 -80 -4 -162 -8 -182 l-8 -38 -318 0
c-307 0 -319 -1 -336 -20 -15 -16 -17 -26 -9 -48 l9 -27 308 -3 c242 -2 307
-5 307 -15 0 -7 -16 -37 -35 -67 -39 -63 -43 -90 -16 -114 39 -36 84 5 141
127 31 66 33 67 70 67 22 0 41 -4 44 -9 3 -5 -12 -36 -34 -70 -76 -117 -58
-131 170 -131 452 0 759 81 924 245 40 39 86 108 102 153 0 1 17 -5 37 -13 79
-33 157 -8 202 62 l20 32 267 1 c229 0 269 2 282 16 20 20 20 48 0 68 -13 14
-53 16 -282 16 l-267 1 -20 32 c-45 71 -136 98 -206 61 -17 -8 -32 -14 -33
-12 -1 2 -11 23 -22 48 -29 67 -125 158 -219 207 -183 94 -376 132 -712 140
-206 5 -235 4 -258 -11 -34 -23 -32 -45 15 -117 22 -34 37 -65 34 -70 -3 -5
-22 -9 -43 -9 -37 0 -38 1 -80 84 -36 73 -78 126 -100 126 -4 0 -17 -7 -29
-16z m747 -109 c309 -45 517 -156 565 -303 23 -67 18 -170 -9 -227 -87 -181
-402 -295 -818 -295 l-155 0 24 59 c46 114 58 185 58 361 0 176 -11 245 -58
361 l-24 59 155 0 c87 0 203 -7 262 -15z m-453 -207 c12 -40 20 -195 13 -285
-9 -128 -11 -133 -65 -133 l-45 0 8 78 c4 42 8 106 8 142 0 36 -4 100 -8 143
l-8 77 45 0 c38 0 46 -4 52 -22z m1264 -158 c11 -11 20 -29 20 -40 0 -25 -34
-60 -59 -60 -18 0 -61 43 -61 60 0 4 9 19 21 34 24 31 52 33 79 6z"/>
</g>
</svg>
