<svg width="20" height="20" viewBox="0 0 20 20" fill="none" xmlns="http://www.w3.org/2000/svg">
<path d="M9.98703 0.399902C7.32903 0.399902 5.07702 1.3279 3.23502 3.1839C1.34502 5.1039 0.400024 7.3759 0.400024 9.9999C0.400024 12.6239 1.34502 14.8799 3.23502 16.7679C5.12502 18.6559 7.37703 19.5999 9.98703 19.5999C12.631 19.5999 14.922 18.6479 16.861 16.7439C18.687 14.9359 19.6 12.6879 19.6 9.9999C19.6 7.3119 18.67 5.0399 16.813 3.1839C14.954 1.3279 12.679 0.399902 9.98703 0.399902ZM10.011 2.1269C12.191 2.1269 14.041 2.8959 15.563 4.4319C17.101 5.9519 17.87 7.8069 17.87 9.9999C17.87 12.2079 17.117 14.0399 15.611 15.4959C14.025 17.0639 12.159 17.8479 10.011 17.8479C7.86502 17.8479 6.01502 17.0719 4.46102 15.5199C2.90702 13.9679 2.13102 12.1279 2.13102 9.9999C2.13102 7.8719 2.91502 6.0159 4.48502 4.4319C5.99102 2.8959 7.83302 2.1269 10.011 2.1269V2.1269Z" fill="black"/>
<path d="M13.932 7.24979H11.832V5.15879C11.832 5.08985 11.8184 5.02158 11.7921 4.95788C11.7657 4.89418 11.727 4.83631 11.6783 4.78756C11.6295 4.73881 11.5716 4.70014 11.5079 4.67375C11.4442 4.64737 11.376 4.63379 11.307 4.63379H6.02002C5.8889 4.64532 5.7669 4.70568 5.67818 4.80292C5.58947 4.90015 5.54051 5.02717 5.54102 5.15879V12.2278C5.54102 12.5178 5.77602 12.7528 6.06602 12.7528H8.16602V14.8428C8.16602 15.1328 8.40102 15.3678 8.69102 15.3678H13.931C14.221 15.3678 14.457 15.1328 14.457 14.8428V7.77479C14.457 7.63555 14.4017 7.50201 14.3033 7.40356C14.2048 7.3051 14.0713 7.24979 13.932 7.24979ZM6.59202 11.7028V5.68379H10.782V7.24979H8.63502C8.5057 7.26366 8.38613 7.32504 8.29949 7.42203C8.21284 7.51903 8.16528 7.64473 8.16602 7.77479V11.7028H6.59102H6.59202ZM13.406 8.29979V14.3178H9.21602V8.29979H13.406V8.29979Z" fill="black"/>
</svg>
