<svg width="28" height="27" viewBox="0 0 28 27" fill="none" xmlns="http://www.w3.org/2000/svg">
<path d="M4.813 0.405762L3.405 1.81176L5.5 3.90576L6.906 2.49976L4.812 0.405762H4.813ZM23.188 0.405762L21.093 2.49976L22.5 3.90576L24.594 1.81276L23.188 0.405762ZM14 1.02976C13.67 1.03376 13.336 1.05276 13 1.09376C12.99 1.09376 12.98 1.09176 12.97 1.09376C8.914 1.55876 5.686 4.83576 5.125 8.87376C4.677 12.1238 6.017 15.0708 8.25 16.9688C9.16341 17.7483 9.78123 18.818 10 19.9988V25.9988H12.28C12.628 26.5958 13.263 26.9988 14 26.9988C14.737 26.9988 15.372 26.5958 15.72 25.9988H18V21.9988H18.094V20.8108C18.094 19.3448 18.856 17.8668 20.094 16.7178C21.75 15.0598 23 12.7048 23 9.99976C23 5.05976 18.934 0.983762 14 1.02976ZM14 3.02976C17.865 2.97576 21 6.13976 21 9.99976C21 12.0938 20.03 13.9378 18.687 15.2798L18.719 15.3118C17.3844 16.5425 16.5214 18.2006 16.279 19.9998H11.905C11.685 18.2858 10.95 16.6268 9.561 15.4368C7.794 13.9368 6.741 11.6768 7.093 9.12476C7.53 5.97476 10.086 3.44176 13.218 3.09476C13.4766 3.05871 13.737 3.03734 13.998 3.03076L14 3.02976ZM0 9.99976V11.9998H3V9.99976H0ZM25 9.99976V11.9998H28V9.99976H25ZM5.5 18.0938L3.406 20.1868L4.813 21.5938L6.905 19.4998L5.5 18.0938ZM22.5 18.0938L21.094 19.4998L23.187 21.5938L24.594 20.1868L22.5 18.0938ZM12 21.9998H16V23.9998H12V21.9998Z" fill="black"/>
</svg>
