<?xml version="1.0" standalone="no"?>
<!DOCTYPE svg PUBLIC "-//W3C//DTD SVG 20010904//EN"
 "http://www.w3.org/TR/2001/REC-SVG-20010904/DTD/svg10.dtd">
<svg version="1.0" xmlns="http://www.w3.org/2000/svg"
 width="184.000000pt" height="91.000000pt" viewBox="0 0 184.000000 91.000000"
 preserveAspectRatio="xMidYMid meet">
<metadata>
Created by potrace 1.15, written by Peter Selinger 2001-2017
</metadata>
<g transform="translate(0.000000,91.000000) scale(0.100000,-0.100000)"
fill="#000000" stroke="none">
<path d="M518 775 c-4 -4 7 -25 23 -48 16 -22 29 -44 29 -49 0 -4 -85 -8 -189
-8 -113 0 -192 -4 -196 -10 -4 -6 68 -11 197 -12 l203 -3 18 -55 c25 -73 26
-213 2 -297 l-18 -63 -198 0 c-121 0 -200 -4 -204 -10 -4 -7 62 -10 189 -10
108 0 196 -4 196 -8 0 -4 -14 -30 -31 -56 l-30 -48 168 4 c147 4 178 8 248 31
44 15 104 40 133 57 65 38 179 144 212 199 l25 40 223 1 c141 0 222 4 222 10
0 6 -81 10 -222 11 l-223 0 -45 62 c-81 110 -209 197 -350 237 -77 21 -367 41
-382 25z m345 -31 c147 -32 303 -134 381 -247 37 -54 39 -59 25 -84 -27 -51
-131 -153 -203 -197 -120 -75 -177 -90 -358 -94 -87 -2 -158 -1 -158 2 0 4 14
33 30 66 83 164 76 370 -15 527 l-26 43 126 0 c78 0 153 -6 198 -16z"/>
</g>
</svg>
